<svg width="98" height="87" viewBox="0 0 98 87" fill="none" xmlns="http://www.w3.org/2000/svg">
<path d="M84 61.5002H25.5L14.25 16.5002H95.25L84 61.5002Z" fill="#EE7D14"/>
<path d="M3 3H10.875L14.25 16.5M14.25 16.5L25.5 61.5H84L95.25 16.5H14.25Z" stroke="#EE7D14" stroke-width="5" stroke-linecap="round" stroke-linejoin="round"/>
<path d="M25.5 84.0002C29.2279 84.0002 32.25 80.9782 32.25 77.2502C32.25 73.5223 29.2279 70.5002 25.5 70.5002C21.7721 70.5002 18.75 73.5223 18.75 77.2502C18.75 80.9782 21.7721 84.0002 25.5 84.0002Z" stroke="#EE7D14" stroke-width="5" stroke-linecap="round" stroke-linejoin="round"/>
<path d="M84 84.0002C87.7279 84.0002 90.75 80.9782 90.75 77.2502C90.75 73.5223 87.7279 70.5002 84 70.5002C80.2721 70.5002 77.25 73.5223 77.25 77.2502C77.25 80.9782 80.2721 84.0002 84 84.0002Z" stroke="#EE7D14" stroke-width="5" stroke-linecap="round" stroke-linejoin="round"/>
<path fill-rule="evenodd" clip-rule="evenodd" d="M37.2586 28.5569C39.2604 26.4883 41.2621 25.7987 43.9302 27.1778C46.3333 28.4192 47.6545 28.5427 48.8676 28.5556C50.1322 28.5427 51.5075 28.4192 54.0109 27.1778C56.7896 25.7987 58.8737 26.4883 60.9591 28.5569C63.4162 30.996 64.1752 33.5355 64.4338 35.4536C64.4647 35.608 64.4904 35.7623 64.5148 35.9167C63.6854 36.1588 62.9431 36.6343 62.3765 37.2866C61.8098 37.9389 61.4428 38.7404 61.3191 39.5956C61.1954 40.4507 61.3204 41.3234 61.679 42.1095C62.0376 42.8956 62.6147 43.562 63.3416 44.0291L63.2399 44.2903C62.7305 43.9296 62.1515 43.6788 61.5399 43.5538C60.9283 43.4288 60.2974 43.4324 59.6873 43.5642C59.0771 43.6961 58.5011 43.9534 57.9957 44.3198C57.4903 44.6861 57.0666 45.1536 56.7515 45.6925C56.4364 46.2314 56.2368 46.8299 56.1654 47.45C56.0939 48.0701 56.1522 48.6984 56.3366 49.2948C56.5209 49.8912 56.8272 50.4427 57.2361 50.9144C57.6449 51.3861 58.1474 51.7676 58.7116 52.0347C58.5954 52.1788 58.4766 52.3208 58.3553 52.4606C57.2811 53.5785 56.0589 54.2951 54.7339 54.0764C50.5658 53.3855 49.8711 53.3855 49.1764 53.3855H48.5718C47.9054 53.3855 47.2377 53.3855 43.2355 54.0764C40.0322 54.627 37.4593 49.2483 36.1832 46.4914C34.1763 42.165 33.7762 37.7435 33.9229 35.4536C34.1711 33.5342 34.9006 30.996 37.2586 28.5582" fill="white"/>
<path fill-rule="evenodd" clip-rule="evenodd" d="M73.5765 30.4353C75.0216 30.9537 76.2015 32.025 76.8568 33.4134C77.512 34.8019 77.5889 36.3937 77.0705 37.8388C77.0294 37.9533 76.974 38.0575 76.9072 38.1514C77.9566 39.0547 78.6478 40.3041 78.8555 41.6731C79.0632 43.0421 78.7736 44.4403 78.0392 45.6142C77.6781 46.1897 77.2187 46.6974 76.682 47.1142C76.7981 48.2646 76.5654 49.4232 76.0144 50.4397C76.7313 50.8272 77.3583 51.3618 77.8544 52.0084C78.3505 52.655 78.7045 53.3991 78.8932 54.1919C79.0819 54.9848 79.1011 55.8085 78.9495 56.6093C78.7979 57.4101 78.4789 58.1698 78.0134 58.8388C77.5479 59.5077 76.9464 60.0709 76.2482 60.4914C75.5501 60.9119 74.771 61.1802 73.962 61.2788C73.153 61.3775 72.3323 61.3041 71.5536 61.0637C70.7749 60.8233 70.0557 60.4211 69.4431 59.8836C68.4648 60.6857 67.2507 61.1454 65.9864 61.1921C64.7221 61.2388 63.4773 60.8701 62.4424 60.1424C61.4076 59.4146 60.6396 58.3679 60.256 57.1623C59.8724 55.9567 59.8942 54.6587 60.3183 53.4667C58.8389 53.3871 57.4464 52.7434 56.4273 51.668C55.4082 50.5927 54.8403 49.1675 54.8403 47.686C54.8403 46.2045 55.4082 44.7794 56.4273 43.704C57.4464 42.6287 58.8389 41.9849 60.3183 41.9053C59.9985 41.0052 59.9064 40.0399 60.0502 39.0955C60.1941 38.1511 60.5694 37.257 61.1427 36.4929C61.716 35.7288 62.4695 35.1184 63.3359 34.7162C64.2024 34.314 65.155 34.1325 66.1086 34.1879C66.1215 34.1017 66.1421 34.0142 66.1729 33.928C66.6917 32.4832 67.7631 31.3035 69.1515 30.6485C70.5399 29.9935 72.1316 29.9168 73.5765 30.4353ZM71.0255 57.8458C71.3707 58.179 71.7862 58.4306 72.2413 58.5824C72.6965 58.7341 73.1798 58.7821 73.656 58.7228C74.1321 58.6636 74.5889 58.4985 74.9929 58.2398C75.397 57.981 75.738 57.6352 75.9911 57.2275C76.2441 56.8199 76.4027 56.3608 76.4553 55.8839C76.5079 55.407 76.4532 54.9244 76.2951 54.4714C76.1369 54.0184 75.8795 53.6066 75.5415 53.266C75.2036 52.9254 74.7937 52.6648 74.342 52.5032C74.2981 52.4875 74.2552 52.4694 74.2133 52.4491C73.3578 53.0409 72.3351 53.4088 71.2313 53.468C71.4461 54.0726 71.5632 54.7262 71.5632 55.4054C71.5632 56.2776 71.3702 57.1035 71.0255 57.8458ZM71.2313 41.9066C72.1255 41.9541 72.9964 42.2085 73.7755 42.6498C74.5546 43.0912 75.2206 43.7074 75.721 44.4499C76.0258 44.0355 76.2274 43.5543 76.309 43.0464C76.4038 42.4497 76.3287 41.8383 76.0922 41.2823C75.8556 40.7263 75.4673 40.2482 74.9716 39.9028C74.4759 39.5573 73.8929 39.3585 73.2894 39.329C72.6859 39.2996 72.0863 39.4408 71.5593 39.7363C71.5894 40.4736 71.478 41.2112 71.2313 41.9066ZM70.8672 37.2123C72.0647 36.7046 73.3981 36.614 74.6533 36.955C74.9366 36.1522 74.8901 35.2698 74.5239 34.5013C74.1578 33.7327 73.5018 33.1407 72.6998 32.855C71.8979 32.5693 71.0154 32.6132 70.2457 32.9771C69.4761 33.341 68.8821 33.9952 68.5941 34.7963C68.5829 34.8277 68.5704 34.8586 68.5568 34.889C69.5337 35.4259 70.3357 36.2324 70.8672 37.2123ZM65.7741 36.7518C64.9212 36.7518 64.1031 37.0906 63.5 37.6937C62.8968 38.2969 62.558 39.1149 62.558 39.9679C62.558 40.8209 62.8968 41.6389 63.5 42.2421C64.1031 42.8452 64.9212 43.1841 65.7741 43.1841C66.6271 43.1841 67.4452 42.8452 68.0483 42.2421C68.6514 41.6389 68.9903 40.8209 68.9903 39.9679C68.9903 39.1149 68.6514 38.2969 68.0483 37.6937C67.4452 37.0906 66.6271 36.7518 65.7741 36.7518ZM60.6283 44.4705C59.7753 44.4705 58.9573 44.8094 58.3542 45.4125C57.751 46.0156 57.4122 46.8337 57.4122 47.6867C57.4122 48.5396 57.751 49.3577 58.3542 49.9608C58.9573 50.564 59.7753 50.9028 60.6283 50.9028C61.4813 50.9028 62.2993 50.564 62.9025 49.9608C63.5056 49.3577 63.8445 48.5396 63.8445 47.6867C63.8445 46.8337 63.5056 46.0156 62.9025 45.4125C62.2993 44.8094 61.4813 44.4705 60.6283 44.4705ZM67.7038 47.6867C67.7038 46.8337 68.0427 46.0156 68.6458 45.4125C69.249 44.8094 70.067 44.4705 70.92 44.4705C71.7729 44.4705 72.591 44.8094 73.1941 45.4125C73.7973 46.0156 74.1361 46.8337 74.1361 47.6867C74.1361 48.5396 73.7973 49.3577 73.1941 49.9608C72.591 50.564 71.7729 50.9028 70.92 50.9028C70.067 50.9028 69.249 50.564 68.6458 49.9608C68.0427 49.3577 67.7038 48.5396 67.7038 47.6867ZM65.7741 52.1893C64.9212 52.1893 64.1031 52.5281 63.5 53.1312C62.8968 53.7344 62.558 54.5524 62.558 55.4054C62.558 56.2584 62.8968 57.0764 63.5 57.6796C64.1031 58.2827 64.9212 58.6216 65.7741 58.6216C66.6271 58.6216 67.4452 58.2827 68.0483 57.6796C68.6514 57.0764 68.9903 56.2584 68.9903 55.4054C68.9903 54.5524 68.6514 53.7344 68.0483 53.1312C67.4452 52.5281 66.6271 52.1893 65.7741 52.1893ZM34.6226 17.4562H36.0801C39.7337 17.4562 43.1736 19.099 45.6848 21.2795C46.5013 21.9855 47.2412 22.7755 47.8924 23.6363V20.7559C47.8924 20.4148 48.0279 20.0875 48.2692 19.8463C48.5104 19.605 48.8376 19.4695 49.1788 19.4695C49.52 19.4695 49.8472 19.605 50.0885 19.8463C50.3298 20.0875 50.4653 20.4148 50.4653 20.7559V29.2466C50.4656 29.4409 50.4217 29.6328 50.337 29.8077C50.2523 29.9827 50.129 30.1361 49.9764 30.2564V30.3195H49.889C49.6781 30.4599 49.4304 30.5345 49.1772 30.5341C48.9239 30.5336 48.6764 30.458 48.4661 30.3169C45.3272 30.2603 42.1728 29.0394 39.6899 27.0802C37.1479 25.0733 35.2182 22.2174 34.8039 18.9009L34.6226 17.4562ZM47.1604 27.6321C46.705 26.2285 45.6218 24.632 43.9983 23.2221C42.2487 21.7041 40.036 20.5475 37.7152 20.1655C38.3366 22.0463 39.6102 23.7405 41.2838 25.0617C42.9987 26.4138 45.075 27.3246 47.1604 27.6321Z" fill="white"/>
<path fill-rule="evenodd" clip-rule="evenodd" d="M73.7352 18.9265L73.9694 20.3648C74.5547 23.9707 73.4844 27.6307 71.7335 30.4583C70.0122 33.2396 67.4445 35.5012 64.7673 35.9361L63.4976 36.1419L63.2918 34.8735C62.7772 31.7023 63.4744 28.2996 65.0465 25.4694C66.6198 22.6392 69.131 20.2773 72.3369 19.3369L73.7352 18.9265ZM71.556 22.4128C69.8 23.3288 68.3308 24.8571 67.2952 26.7199C66.2352 28.629 65.6666 30.8237 65.6987 32.9335C67.0109 32.2581 68.4132 30.933 69.5452 29.1037C70.7648 27.1354 71.5508 24.7645 71.5573 22.4141" fill="white"/>
</svg>
