<svg width="32" height="29" viewBox="0 0 32 29" fill="none" xmlns="http://www.w3.org/2000/svg">
<path d="M27.3414 20.0245H8.31698L4.65845 5.39038H30.9999L27.3414 20.0245Z" fill="black"/>
<path d="M1 1H3.56098L4.65854 5.39024M4.65854 5.39024L8.31707 20.0244H27.3415L31 5.39024H4.65854Z" fill="black"/>
<path d="M1 1H3.56098L4.65854 5.39024M4.65854 5.39024L8.31707 20.0244H27.3415L31 5.39024H4.65854Z" stroke="black" stroke-width="2" stroke-linecap="round" stroke-linejoin="round"/>
<path d="M8.31695 27.3415C9.52928 27.3415 10.5121 26.3587 10.5121 25.1464C10.5121 23.9341 9.52928 22.9513 8.31695 22.9513C7.10462 22.9513 6.12183 23.9341 6.12183 25.1464C6.12183 26.3587 7.10462 27.3415 8.31695 27.3415Z" fill="black" stroke="black" stroke-width="2" stroke-linecap="round" stroke-linejoin="round"/>
<path d="M27.3415 27.3415C28.5538 27.3415 29.5366 26.3587 29.5366 25.1464C29.5366 23.9341 28.5538 22.9513 27.3415 22.9513C26.1292 22.9513 25.1464 23.9341 25.1464 25.1464C25.1464 26.3587 26.1292 27.3415 27.3415 27.3415Z" fill="black" stroke="black" stroke-width="2" stroke-linecap="round" stroke-linejoin="round"/>
</svg>
