<svg width="30" height="30" viewBox="0 0 30 30" fill="none" xmlns="http://www.w3.org/2000/svg">
<path d="M22.4957 19.8469C22.1771 19.5271 21.7443 19.3472 21.2928 19.3472H20.8126C20.6813 19.3472 20.5551 19.2963 20.4606 19.2052C20.2668 19.0185 20.2536 18.7136 20.4205 18.5025C21.3644 17.3088 22.0614 15.9374 22.4688 14.4682C22.919 12.8447 23.0046 11.1418 22.7195 9.48143C21.8925 4.5925 17.8101 0.688389 12.8831 0.0904622C11.1509 -0.128545 9.3916 0.0513712 7.73972 0.616443C6.08783 1.18151 4.58718 2.11676 3.35259 3.35063C2.11801 4.58449 1.18221 6.08426 0.616804 7.73518C0.0514014 9.3861 -0.12862 11.1444 0.0905153 12.8755C0.688793 17.7997 4.5952 21.8796 9.48699 22.7062C11.1484 22.9912 12.8522 22.9056 14.4767 22.4557C15.9469 22.0484 17.3192 21.3518 18.5137 20.4083C18.7248 20.2416 19.0295 20.2548 19.2163 20.4484C19.3076 20.543 19.3586 20.6693 19.3586 20.8008V21.2815C19.3586 21.732 19.5376 22.1641 19.8563 22.4826L26.837 29.4592C27.5585 30.1803 28.7375 30.1803 29.4589 29.4592C30.1804 28.7382 30.1804 27.5599 29.4589 26.8389L22.4957 19.8469ZM11.4402 19.3472C7.05869 19.3472 3.52181 15.8124 3.52181 11.4335C3.52181 7.05455 7.05869 3.51975 11.4402 3.51975C15.8217 3.51975 19.3586 7.05455 19.3586 11.4335C19.3586 15.8124 15.8217 19.3472 11.4402 19.3472Z" fill="black"/>
</svg>
